<svg width="745" height="658" viewBox="0 0 745 658" fill="none" xmlns="http://www.w3.org/2000/svg">
<g filter="url(#filter0_d_0_181)">
<path fill-rule="evenodd" clip-rule="evenodd" d="M330.695 581.013L125.169 441.697C107.491 429.714 107.629 410.286 125.477 398.303L332.98 258.987C350.828 247.004 379.627 247.004 397.305 258.987L602.831 398.303C620.509 410.286 620.371 429.714 602.524 441.697L395.02 581.013C377.172 592.996 348.373 592.996 330.695 581.013Z" fill="url(#paint0_linear_0_181)"/>
</g>
<g filter="url(#filter1_d_0_181)">
<path fill-rule="evenodd" clip-rule="evenodd" d="M331.838 509.013L125.322 369.697C107.559 357.714 107.559 338.286 125.322 326.303L331.838 186.987C349.6 175.004 378.4 175.004 396.162 186.987L602.678 326.303C620.441 338.286 620.441 357.714 602.678 369.697L396.162 509.013C378.4 520.996 349.6 520.996 331.838 509.013Z" fill="url(#paint1_linear_0_181)"/>
</g>
<g filter="url(#filter2_d_0_181)">
<path fill-rule="evenodd" clip-rule="evenodd" d="M330.838 437.013L124.322 297.697C106.559 285.714 106.559 266.286 124.322 254.303L330.838 114.987C348.6 103.004 377.4 103.004 395.162 114.987L601.678 254.303C619.441 266.286 619.441 285.714 601.678 297.697L395.162 437.013C377.4 448.996 348.6 448.996 330.838 437.013Z" fill="url(#paint2_linear_0_181)"/>
</g>
<rect opacity="0.01" width="162.129" height="102.528" transform="matrix(0.989651 0.143493 -0.511893 0.859049 297.634 21)" fill="black"/>
<g clip-path="url(#clip0_0_181)">
<path d="M360.93 182.719L416.152 218.867C419.43 221.012 425.167 221.02 428.655 218.883C432.143 216.746 432.17 213.208 428.893 211.062L373.67 174.914C370.107 172.582 364.879 172.715 361.39 174.852C357.902 176.989 357.367 180.386 360.93 182.719ZM242.514 290.384C258.76 301.019 280.97 301.047 298.261 290.455L422.024 214.638L410.623 207.175L286.86 282.992C276.85 289.125 263.906 289.108 254.572 282.998C245.095 276.794 245.497 268.602 255.508 262.469L379.271 186.652L367.798 179.143L244.036 254.96C226.745 265.552 226.125 279.657 242.514 290.384ZM387.51 225.488L349.602 200.674L252.23 260.324C240.324 267.617 239.825 277.765 251.083 285.135C262.199 292.411 278.232 292.431 290.138 285.138L387.51 225.488ZM328.234 217.918L337.106 212.482L352.569 222.604C354.849 224.096 354.872 226.61 352.521 228.05C349.943 229.63 346.119 229.625 343.767 228.086L328.234 217.918ZM303.663 232.969L312.536 227.534L328.069 237.702C330.35 239.195 330.226 241.708 327.875 243.149C325.297 244.728 321.548 244.677 319.197 243.137L303.663 232.969ZM279.016 248.068L287.889 242.632L303.352 252.754C305.632 254.246 305.508 256.76 303.157 258.2C300.65 259.826 296.973 259.822 294.479 258.189L279.016 248.068ZM439.666 234.259L494.889 270.407C498.167 272.553 503.832 272.513 507.321 270.376C510.809 268.239 510.907 264.748 507.63 262.602L452.407 226.454C448.844 224.122 443.544 224.208 440.055 226.345C436.567 228.482 436.103 231.927 439.666 234.259ZM321.179 341.878C337.426 352.513 359.707 352.587 376.998 341.995L500.76 266.178L489.36 258.715L365.597 334.532C355.586 340.665 342.644 340.648 333.238 334.491C323.761 328.288 324.163 320.095 334.174 313.963L457.936 238.146L446.464 230.636L322.701 306.453C305.411 317.046 304.862 331.197 321.179 341.878ZM376.918 331.661L339.081 306.893L330.967 311.864C319.061 319.157 318.49 329.259 329.749 336.629C340.936 343.952 356.898 343.925 368.804 336.631L376.918 331.661ZM403.906 267.452L422.505 279.626C424.855 281.165 428.609 281.124 431.187 279.544C433.538 278.104 433.586 275.636 431.306 274.144L412.779 262.017L403.906 267.452ZM379.336 282.504L397.934 294.678C400.285 296.217 403.963 296.222 406.541 294.642C408.892 293.202 409.087 290.735 406.807 289.243L388.209 277.069L379.336 282.504ZM354.689 297.602L373.216 309.73C375.71 311.362 379.316 311.32 381.823 309.694C384.174 308.254 384.369 305.787 382.089 304.294L363.562 292.167L354.689 297.602Z" fill="url(#paint3_linear_0_181)"/>
</g>
<defs>
<filter id="filter0_d_0_181" x="62" y="202" width="604" height="440" filterUnits="userSpaceOnUse" color-interpolation-filters="sRGB">
<feFlood flood-opacity="0" result="BackgroundImageFix"/>
<feColorMatrix in="SourceAlpha" type="matrix" values="0 0 0 0 0 0 0 0 0 0 0 0 0 0 0 0 0 0 127 0" result="hardAlpha"/>
<feOffset dy="2"/>
<feGaussianBlur stdDeviation="25"/>
<feColorMatrix type="matrix" values="0 0 0 0 0 0 0 0 0 0 0 0 0 0 0 0 0 0 0.126147 0"/>
<feBlend mode="normal" in2="BackgroundImageFix" result="effect1_dropShadow_0_181"/>
<feBlend mode="normal" in="SourceGraphic" in2="effect1_dropShadow_0_181" result="shape"/>
</filter>
<filter id="filter1_d_0_181" x="62" y="130" width="604" height="440" filterUnits="userSpaceOnUse" color-interpolation-filters="sRGB">
<feFlood flood-opacity="0" result="BackgroundImageFix"/>
<feColorMatrix in="SourceAlpha" type="matrix" values="0 0 0 0 0 0 0 0 0 0 0 0 0 0 0 0 0 0 127 0" result="hardAlpha"/>
<feOffset dy="2"/>
<feGaussianBlur stdDeviation="25"/>
<feColorMatrix type="matrix" values="0 0 0 0 0 0 0 0 0 0 0 0 0 0 0 0 0 0 0.126147 0"/>
<feBlend mode="normal" in2="BackgroundImageFix" result="effect1_dropShadow_0_181"/>
<feBlend mode="normal" in="SourceGraphic" in2="effect1_dropShadow_0_181" result="shape"/>
</filter>
<filter id="filter2_d_0_181" x="61" y="58" width="604" height="440" filterUnits="userSpaceOnUse" color-interpolation-filters="sRGB">
<feFlood flood-opacity="0" result="BackgroundImageFix"/>
<feColorMatrix in="SourceAlpha" type="matrix" values="0 0 0 0 0 0 0 0 0 0 0 0 0 0 0 0 0 0 127 0" result="hardAlpha"/>
<feOffset dy="2"/>
<feGaussianBlur stdDeviation="25"/>
<feColorMatrix type="matrix" values="0 0 0 0 0 0 0 0 0 0 0 0 0 0 0 0 0 0 0.126147 0"/>
<feBlend mode="normal" in2="BackgroundImageFix" result="effect1_dropShadow_0_181"/>
<feBlend mode="normal" in="SourceGraphic" in2="effect1_dropShadow_0_181" result="shape"/>
</filter>
<linearGradient id="paint0_linear_0_181" x1="112" y1="250" x2="112" y2="590" gradientUnits="userSpaceOnUse">
<stop stop-color="#7E99CD"/>
<stop offset="1" stop-color="#746AE5"/>
</linearGradient>
<linearGradient id="paint1_linear_0_181" x1="112" y1="178" x2="112" y2="518" gradientUnits="userSpaceOnUse">
<stop stop-color="#7FB87E"/>
<stop offset="1" stop-color="#6ABFEE"/>
</linearGradient>
<linearGradient id="paint2_linear_0_181" x1="111" y1="106" x2="111" y2="446" gradientUnits="userSpaceOnUse">
<stop stop-color="#F5B4AB"/>
<stop offset="1" stop-color="#FFF9F5"/>
</linearGradient>
<linearGradient id="paint3_linear_0_181" x1="440.65" y1="218.758" x2="348.395" y2="359.693" gradientUnits="userSpaceOnUse">
<stop stop-color="#5A93D6"/>
<stop offset="1" stop-color="#8E8F48"/>
</linearGradient>
<clipPath id="clip0_0_181">
<rect width="197.007" height="165.337" fill="white" transform="matrix(0.740738 0.484878 -0.962743 0.589777 367.684 170.996)"/>
</clipPath>
</defs>
</svg>
